<svg width="249" height="49" viewBox="0 0 249 49" fill="none" xmlns="http://www.w3.org/2000/svg">
    <path
        d="M4.27217 13.4754L31.7354 4.90039L42.1104 39.8129H1.2207L4.88247 21.4379L4.27217 13.4754Z"
        fill="black"
        stroke="black"
    />
    <path
        fillRule="evenodd"
        clipRule="evenodd"
        d="M18.161 27.66C17.2812 27.66 17.2812 27.66 17.507 28.5306C18.0138 30.4863 19.8042 31.6529 21.8179 31.3399C23.4116 31.0921 24.808 29.5505 24.8776 27.9846C24.8895 27.7194 24.8162 27.6514 24.5576 27.6542C23.4167 27.6674 22.2757 27.66 21.1346 27.66H18.161ZM21.3863 19.1579C23.7094 20.709 26.0371 22.2534 28.3674 23.7935C28.5394 23.9071 28.6108 24.0274 28.6101 24.2398C28.6022 26.8085 28.6092 29.3774 28.6031 31.9464C28.5998 33.3682 27.5303 34.4553 26.1087 34.4679C24.4582 34.4826 22.8075 34.4713 21.1569 34.4716C19.5178 34.472 17.8786 34.4776 16.2395 34.47C14.9901 34.4642 14.0379 33.7063 13.7503 32.5169C13.7005 32.3106 13.7072 32.1033 13.707 31.896C13.7053 29.3502 13.7085 26.8046 13.7013 24.2588C13.7007 24.0403 13.7565 23.9044 13.9468 23.7791C16.2693 22.2479 18.5873 20.7094 20.9005 19.1639C21.0823 19.0425 21.2034 19.0359 21.3863 19.1579ZM22.0921 14.9309C23.9179 16.1444 25.7517 17.3456 27.5829 18.5509C28.6002 19.2206 29.6213 19.8843 30.6342 20.5609C31.0998 20.8719 31.2921 21.4013 31.1643 21.9327C31.0462 22.4233 30.6429 22.7845 30.1091 22.8642C29.7393 22.9195 29.4353 22.7537 29.1397 22.559C26.6404 20.9129 24.1365 19.2739 21.6449 17.6164C21.3739 17.4361 21.2001 17.4545 20.9415 17.626C18.4382 19.287 15.9275 20.9368 13.4145 22.5828C12.7569 23.0137 12.0382 22.8755 11.6493 22.2681C11.5142 22.0574 11.4397 21.8287 11.4605 21.6174C11.4524 21.0714 11.7017 20.7257 12.1093 20.4582C14.7177 18.746 17.3228 17.0288 19.9291 15.3133C20.1229 15.1858 20.3191 15.0616 20.5096 14.9293C21.0386 14.5623 21.5536 14.5729 22.0921 14.9309Z"
        fill="white"
    />
    <path
        d="M69.6712 13.6612V34.3H64.6619V25.8034H56.8696V34.3H51.8604V13.6612H56.8696V21.7462H64.6619V13.6612H69.6712ZM83.0131 34.5058C81.0796 34.5058 79.3025 34.055 77.6815 33.1534C76.0801 32.2518 74.8009 30.9974 73.844 29.3902C72.9066 27.7634 72.4379 25.9406 72.4379 23.9218C72.4379 21.903 72.9066 20.09 73.844 18.4828C74.8009 16.8756 76.0801 15.6212 77.6815 14.7196C79.3025 13.818 81.0796 13.3672 83.0131 13.3672C84.9465 13.3672 86.7139 13.818 88.3153 14.7196C89.9362 15.6212 91.2057 16.8756 92.1235 18.4828C93.0609 20.09 93.5297 21.903 93.5297 23.9218C93.5297 25.9406 93.0609 27.7634 92.1235 29.3902C91.1861 30.9974 89.9167 32.2518 88.3153 33.1534C86.7139 34.055 84.9465 34.5058 83.0131 34.5058ZM83.0131 29.9194C84.6535 29.9194 85.962 29.3706 86.9385 28.273C87.9345 27.1754 88.4325 25.725 88.4325 23.9218C88.4325 22.099 87.9345 20.6486 86.9385 19.5706C85.962 18.473 84.6535 17.9242 83.0131 17.9242C81.3531 17.9242 80.0251 18.4632 79.0291 19.5412C78.0526 20.6192 77.5644 22.0794 77.5644 23.9218C77.5644 25.7446 78.0526 27.2048 79.0291 28.3024C80.0251 29.3804 81.3531 29.9194 83.0131 29.9194ZM101.238 13.6612V26.0092C101.238 27.244 101.541 28.1946 102.146 28.861C102.751 29.5274 103.64 29.8606 104.812 29.8606C105.984 29.8606 106.882 29.5274 107.507 28.861C108.132 28.1946 108.444 27.244 108.444 26.0092V13.6612H113.454V25.9798C113.454 27.8222 113.063 29.3804 112.282 30.6544C111.501 31.9284 110.446 32.8888 109.118 33.5356C107.81 34.1824 106.345 34.5058 104.724 34.5058C103.103 34.5058 101.648 34.1922 100.359 33.565C99.0897 32.9182 98.0839 31.9578 97.3418 30.6838C96.5997 29.3902 96.2286 27.8222 96.2286 25.9798V13.6612H101.238ZM124.412 34.5058C122.908 34.5058 121.561 34.2608 120.369 33.7708C119.178 33.2808 118.221 32.5556 117.498 31.5952C116.795 30.6348 116.424 29.4784 116.385 28.126H121.717C121.795 28.8904 122.059 29.4784 122.508 29.89C122.957 30.282 123.543 30.478 124.266 30.478C125.008 30.478 125.594 30.3114 126.023 29.9782C126.453 29.6254 126.668 29.1452 126.668 28.5376C126.668 28.028 126.492 27.6066 126.14 27.2734C125.808 26.9402 125.389 26.6658 124.881 26.4502C124.393 26.2346 123.69 25.9896 122.772 25.7152C121.443 25.3036 120.36 24.892 119.52 24.4804C118.68 24.0688 117.957 23.4612 117.352 22.6576C116.747 21.854 116.444 20.8054 116.444 19.5118C116.444 17.591 117.137 16.0916 118.524 15.0136C119.91 13.916 121.717 13.3672 123.943 13.3672C126.209 13.3672 128.035 13.916 129.421 15.0136C130.808 16.0916 131.55 17.6008 131.648 19.5412H126.228C126.189 18.8748 125.945 18.3554 125.496 17.983C125.047 17.591 124.471 17.395 123.768 17.395C123.162 17.395 122.674 17.5616 122.303 17.8948C121.932 18.2084 121.746 18.669 121.746 19.2766C121.746 19.943 122.059 20.4624 122.684 20.8348C123.309 21.2072 124.285 21.609 125.613 22.0402C126.941 22.491 128.015 22.9222 128.836 23.3338C129.675 23.7454 130.398 24.3432 131.003 25.1272C131.609 25.9112 131.911 26.9206 131.911 28.1554C131.911 29.3314 131.609 30.3996 131.003 31.36C130.417 32.3204 129.558 33.0848 128.425 33.6532C127.293 34.2216 125.955 34.5058 124.412 34.5058ZM140.003 17.689V21.8638H146.711V25.7446H140.003V30.2722H147.59V34.3H134.993V13.6612H147.59V17.689H140.003ZM174.132 13.6612V34.3H169.122V21.9226L164.523 34.3H160.481L155.852 21.8932V34.3H150.843V13.6612H156.76L162.531 27.9496L168.243 13.6612H174.132ZM190.535 30.6544H182.86L181.63 34.3H176.386L183.827 13.6612H189.627L197.068 34.3H191.765L190.535 30.6544ZM189.246 26.7736L186.698 19.2178L184.178 26.7736H189.246ZM214.125 13.6612V17.689H208.677V34.3H203.667V17.689H198.219V13.6612H214.125ZM221.649 17.689V21.8638H228.357V25.7446H221.649V30.2722H229.236V34.3H216.64V13.6612H229.236V17.689H221.649ZM239.929 34.5058C238.425 34.5058 237.077 34.2608 235.886 33.7708C234.695 33.2808 233.738 32.5556 233.015 31.5952C232.312 30.6348 231.941 29.4784 231.902 28.126H237.234C237.312 28.8904 237.575 29.4784 238.024 29.89C238.474 30.282 239.06 30.478 239.782 30.478C240.524 30.478 241.11 30.3114 241.54 29.9782C241.969 29.6254 242.184 29.1452 242.184 28.5376C242.184 28.028 242.008 27.6066 241.657 27.2734C241.325 26.9402 240.905 26.6658 240.397 26.4502C239.909 26.2346 239.206 25.9896 238.288 25.7152C236.96 25.3036 235.876 24.892 235.036 24.4804C234.197 24.0688 233.474 23.4612 232.869 22.6576C232.263 21.854 231.961 20.8054 231.961 19.5118C231.961 17.591 232.654 16.0916 234.04 15.0136C235.427 13.916 237.234 13.3672 239.46 13.3672C241.725 13.3672 243.551 13.916 244.938 15.0136C246.324 16.0916 247.067 17.6008 247.164 19.5412H241.745C241.706 18.8748 241.462 18.3554 241.012 17.983C240.563 17.591 239.987 17.395 239.284 17.395C238.679 17.395 238.19 17.5616 237.819 17.8948C237.448 18.2084 237.263 18.669 237.263 19.2766C237.263 19.943 237.575 20.4624 238.2 20.8348C238.825 21.2072 239.802 21.609 241.13 22.0402C242.458 22.491 243.532 22.9222 244.352 23.3338C245.192 23.7454 245.914 24.3432 246.52 25.1272C247.125 25.9112 247.428 26.9206 247.428 28.1554C247.428 29.3314 247.125 30.3996 246.52 31.36C245.934 32.3204 245.075 33.0848 243.942 33.6532C242.809 34.2216 241.471 34.5058 239.929 34.5058Z"
        fill="black"
    />
</svg>
